<mxfile host="app.diagrams.net" modified="2024-02-26T20:38:18.313Z" agent="Mozilla/5.0 (Windows NT 10.0; Win64; x64) AppleWebKit/537.36 (KHTML, like Gecko) Chrome/121.0.0.0 Safari/537.36 Edg/121.0.0.0" version="23.1.6" etag="YIgR-Owxfx5s7TEE7VXX" type="github">
  <diagram name="Page-1" id="f4UrqRPoQrdR1GpSnme4">
    <mxGraphModel>
      <root>
        <mxCell id="0" />
        <mxCell id="1" parent="0" />
      </root>
    </mxGraphModel>
  </diagram>
</mxfile>
